<svg xmlns="http://www.w3.org/2000/svg" width="600" height="400" viewBox="0 0 600 400">
  <rect width="600" height="400" fill="#f5f0e8"/>
  <rect x="20" y="250" width="560" height="130" rx="4" fill="#d4a574"/>
  <rect x="0" y="0" width="600" height="260" fill="#87CEEB"/>
  <rect x="50" y="120" width="200" height="140" rx="6" fill="#c08040" stroke="#8B4513" stroke-width="2"/>
  <rect x="60" y="130" width="80" height="100" fill="#654321"/>
  <rect x="150" y="160" width="90" height="100" fill="#654321"/>
  <text x="105" y="250" text-anchor="middle" fill="#fff" font-size="10" font-weight="bold">ENTRÉE</text>
  <rect x="300" y="100" width="250" height="160" rx="6" fill="#e8d5b0" stroke="#8B4513" stroke-width="2"/>
  <text x="425" y="160" text-anchor="middle" fill="#8B4513" font-size="11" font-weight="bold">CHEZ MAMA</text>
  <text x="425" y="180" text-anchor="middle" fill="#8B4513" font-size="16" font-weight="bold">NGUDI</text>
  <text x="425" y="205" text-anchor="middle" fill="#654321" font-size="10">Restaurant Traditionnel</text>
  <text x="425" y="225" text-anchor="middle" fill="#654321" font-size="9">Poulet DG · Saka Saka · Liboke</text>
  <rect x="100" y="310" width="100" height="50" rx="4" fill="#8B4513"/>
  <rect x="250" y="300" width="80" height="60" rx="4" fill="#a0522d"/>
  <rect x="400" y="305" width="120" height="55" rx="4" fill="#8B4513"/>
  <circle cx="520" cy="60" r="35" fill="#FFD700" opacity="0.7"/>
  <text x="300" y="385" text-anchor="middle" fill="#666" font-size="10">Photo façade — 123 Avenue de la Paix, Bacongo</text>
</svg>
